<svg xmlns="http://www.w3.org/2000/svg" viewBox="0 0 900 1200" width="900" height="1200"><rect width="900" height="1200" fill="#0a0a0a"/><line x1="28.5" y1="1162.6" x2="468.3" y2="1471.5" stroke="#f2f1ec" stroke-width="1.54" opacity="0.11"/><line x1="464.6" y1="477.9" x2="589.3" y2="905.5" stroke="#f2f1ec" stroke-width="1.39" opacity="0.11"/><line x1="489.5" y1="823.2" x2="447.5" y2="961.6" stroke="#f2f1ec" stroke-width="0.87" opacity="0.14"/><line x1="831.7" y1="986.9" x2="718.9" y2="1171.2" stroke="#f2f1ec" stroke-width="1.53" opacity="0.11"/><line x1="304.0" y1="188.4" x2="180.4" y2="619.0" stroke="#f2f1ec" stroke-width="1.24" opacity="0.19"/><line x1="632.2" y1="783.8" x2="999.1" y2="1154.1" stroke="#f2f1ec" stroke-width="1.59" opacity="0.18"/><line x1="897.3" y1="1060.3" x2="498.3" y2="1222.2" stroke="#f2f1ec" stroke-width="1.37" opacity="0.17"/><line x1="114.9" y1="1004.8" x2="284.7" y2="1344.3" stroke="#f2f1ec" stroke-width="1.48" opacity="0.14"/><line x1="243.4" y1="664.0" x2="-189.8" y2="842.2" stroke="#f2f1ec" stroke-width="1.59" opacity="0.20"/><line x1="724.4" y1="581.8" x2="1152.5" y2="858.6" stroke="#f2f1ec" stroke-width="0.45" opacity="0.21"/><line x1="575.3" y1="283.2" x2="933.1" y2="488.8" stroke="#f2f1ec" stroke-width="0.49" opacity="0.13"/><line x1="96.0" y1="161.8" x2="366.1" y2="434.4" stroke="#f2f1ec" stroke-width="0.43" opacity="0.19"/><line x1="567.2" y1="310.0" x2="493.3" y2="402.5" stroke="#f2f1ec" stroke-width="0.70" opacity="0.14"/><line x1="768.8" y1="810.3" x2="1286.2" y2="875.2" stroke="#f2f1ec" stroke-width="0.58" opacity="0.10"/><line x1="520.1" y1="84.5" x2="571.2" y2="262.5" stroke="#f2f1ec" stroke-width="0.94" opacity="0.12"/><line x1="378.8" y1="408.0" x2="403.2" y2="793.0" stroke="#f2f1ec" stroke-width="0.90" opacity="0.15"/><line x1="267.0" y1="476.8" x2="554.2" y2="548.5" stroke="#f2f1ec" stroke-width="1.01" opacity="0.09"/><line x1="285.6" y1="667.6" x2="302.1" y2="1041.3" stroke="#f2f1ec" stroke-width="0.71" opacity="0.19"/><line x1="134.0" y1="1103.2" x2="235.7" y2="1288.6" stroke="#f2f1ec" stroke-width="0.80" opacity="0.21"/><line x1="624.5" y1="1132.3" x2="325.7" y2="1140.8" stroke="#f2f1ec" stroke-width="1.36" opacity="0.08"/><line x1="731.5" y1="307.2" x2="926.5" y2="647.0" stroke="#f2f1ec" stroke-width="1.01" opacity="0.15"/><line x1="288.3" y1="471.6" x2="189.7" y2="497.0" stroke="#f2f1ec" stroke-width="0.42" opacity="0.16"/><line x1="74.2" y1="307.6" x2="141.1" y2="384.3" stroke="#f2f1ec" stroke-width="0.87" opacity="0.21"/><line x1="774.3" y1="50.3" x2="278.5" y2="67.4" stroke="#f2f1ec" stroke-width="1.43" opacity="0.10"/><line x1="285.8" y1="192.5" x2="5.2" y2="495.7" stroke="#f2f1ec" stroke-width="0.73" opacity="0.21"/><line x1="654.6" y1="857.0" x2="767.6" y2="1318.9" stroke="#f2f1ec" stroke-width="1.06" opacity="0.18"/><line x1="822.7" y1="85.0" x2="1016.8" y2="114.2" stroke="#f2f1ec" stroke-width="1.51" opacity="0.12"/><line x1="339.6" y1="666.9" x2="295.5" y2="955.8" stroke="#f2f1ec" stroke-width="1.38" opacity="0.14"/><line x1="688.9" y1="163.1" x2="477.3" y2="374.8" stroke="#f2f1ec" stroke-width="1.01" opacity="0.09"/><line x1="783.0" y1="171.3" x2="543.6" y2="390.7" stroke="#f2f1ec" stroke-width="0.41" opacity="0.21"/><line x1="673.7" y1="121.4" x2="1106.7" y2="393.2" stroke="#f2f1ec" stroke-width="0.94" opacity="0.15"/><line x1="377.3" y1="6.6" x2="582.6" y2="56.1" stroke="#f2f1ec" stroke-width="0.55" opacity="0.13"/><line x1="352.3" y1="915.7" x2="740.7" y2="952.4" stroke="#f2f1ec" stroke-width="0.70" opacity="0.16"/><line x1="307.1" y1="88.8" x2="229.8" y2="181.8" stroke="#f2f1ec" stroke-width="1.38" opacity="0.12"/><line x1="102.1" y1="709.2" x2="-173.6" y2="1167.6" stroke="#f2f1ec" stroke-width="0.66" opacity="0.09"/><line x1="832.2" y1="324.1" x2="700.8" y2="642.5" stroke="#f2f1ec" stroke-width="1.58" opacity="0.16"/><line x1="730.3" y1="223.0" x2="484.3" y2="407.4" stroke="#f2f1ec" stroke-width="1.32" opacity="0.16"/><line x1="124.4" y1="483.6" x2="63.4" y2="647.6" stroke="#f2f1ec" stroke-width="0.79" opacity="0.11"/><line x1="413.7" y1="1053.8" x2="41.1" y2="1122.8" stroke="#f2f1ec" stroke-width="1.21" opacity="0.21"/><line x1="775.6" y1="690.3" x2="1019.7" y2="718.4" stroke="#f2f1ec" stroke-width="0.72" opacity="0.16"/><path d="M 451.1 966.1 A 419.3 419.3 0 0 1 467.0 128.4" fill="none" stroke="#f2f1ec" stroke-width="1" opacity="0.4"/><path d="M 736.6 755.5 A 477.3 477.3 0 0 1 -164.7 490.6" fill="none" stroke="#f2f1ec" stroke-width="1" opacity="0.4"/><circle cx="120.5" cy="512.3" r="1.42" fill="#f2f1ec" opacity="0.27"/><circle cx="209.5" cy="802.3" r="0.77" fill="#f2f1ec" opacity="0.32"/><circle cx="207.1" cy="907.1" r="0.46" fill="#f2f1ec" opacity="0.20"/><circle cx="836.6" cy="104.0" r="0.87" fill="#f2f1ec" opacity="0.15"/><circle cx="343.2" cy="678.2" r="1.55" fill="#f2f1ec" opacity="0.48"/><circle cx="278.3" cy="917.6" r="0.95" fill="#f2f1ec" opacity="0.12"/><circle cx="241.5" cy="381.0" r="0.88" fill="#f2f1ec" opacity="0.50"/><circle cx="720.7" cy="114.7" r="1.10" fill="#f2f1ec" opacity="0.20"/><circle cx="234.1" cy="1048.0" r="0.48" fill="#f2f1ec" opacity="0.39"/><circle cx="799.1" cy="2.6" r="0.75" fill="#f2f1ec" opacity="0.41"/><circle cx="42.3" cy="437.3" r="0.68" fill="#f2f1ec" opacity="0.45"/><circle cx="729.5" cy="917.5" r="0.73" fill="#f2f1ec" opacity="0.12"/><circle cx="813.8" cy="270.4" r="0.66" fill="#f2f1ec" opacity="0.11"/><circle cx="741.5" cy="536.0" r="0.61" fill="#f2f1ec" opacity="0.08"/><circle cx="412.4" cy="49.9" r="0.40" fill="#f2f1ec" opacity="0.28"/><circle cx="507.3" cy="649.5" r="1.50" fill="#f2f1ec" opacity="0.09"/><circle cx="59.8" cy="112.4" r="1.14" fill="#f2f1ec" opacity="0.35"/><circle cx="204.4" cy="689.2" r="0.47" fill="#f2f1ec" opacity="0.13"/><circle cx="247.6" cy="162.6" r="0.72" fill="#f2f1ec" opacity="0.20"/><circle cx="368.6" cy="1030.5" r="1.31" fill="#f2f1ec" opacity="0.42"/><circle cx="141.4" cy="952.7" r="0.86" fill="#f2f1ec" opacity="0.46"/><circle cx="556.7" cy="817.3" r="1.10" fill="#f2f1ec" opacity="0.08"/><circle cx="267.3" cy="211.0" r="0.72" fill="#f2f1ec" opacity="0.40"/><circle cx="357.8" cy="162.2" r="1.36" fill="#f2f1ec" opacity="0.20"/><circle cx="96.9" cy="452.8" r="0.82" fill="#f2f1ec" opacity="0.31"/><circle cx="589.4" cy="940.5" r="1.10" fill="#f2f1ec" opacity="0.28"/><circle cx="273.2" cy="805.2" r="1.27" fill="#f2f1ec" opacity="0.46"/><circle cx="591.2" cy="1045.9" r="0.43" fill="#f2f1ec" opacity="0.21"/><circle cx="283.4" cy="793.8" r="1.41" fill="#f2f1ec" opacity="0.34"/><circle cx="236.5" cy="712.4" r="0.64" fill="#f2f1ec" opacity="0.30"/><circle cx="30.1" cy="973.0" r="1.55" fill="#f2f1ec" opacity="0.16"/><circle cx="595.3" cy="71.4" r="0.53" fill="#f2f1ec" opacity="0.33"/><circle cx="59.3" cy="495.4" r="0.95" fill="#f2f1ec" opacity="0.41"/><circle cx="817.0" cy="562.7" r="0.44" fill="#f2f1ec" opacity="0.21"/><circle cx="138.5" cy="613.8" r="0.79" fill="#f2f1ec" opacity="0.21"/><circle cx="461.1" cy="479.5" r="0.53" fill="#f2f1ec" opacity="0.45"/><circle cx="320.7" cy="214.1" r="0.91" fill="#f2f1ec" opacity="0.41"/><circle cx="312.7" cy="60.4" r="1.14" fill="#f2f1ec" opacity="0.42"/><circle cx="564.0" cy="525.9" r="0.66" fill="#f2f1ec" opacity="0.10"/><circle cx="560.3" cy="178.4" r="1.53" fill="#f2f1ec" opacity="0.23"/><circle cx="458.5" cy="180.2" r="1.06" fill="#f2f1ec" opacity="0.28"/><circle cx="682.9" cy="1170.1" r="0.57" fill="#f2f1ec" opacity="0.45"/><circle cx="201.8" cy="607.7" r="1.46" fill="#f2f1ec" opacity="0.24"/><circle cx="311.2" cy="528.8" r="0.82" fill="#f2f1ec" opacity="0.23"/><circle cx="402.6" cy="711.0" r="1.15" fill="#f2f1ec" opacity="0.11"/><circle cx="152.1" cy="366.2" r="0.80" fill="#f2f1ec" opacity="0.26"/><circle cx="492.7" cy="1196.2" r="1.40" fill="#f2f1ec" opacity="0.46"/><circle cx="298.6" cy="451.0" r="1.30" fill="#f2f1ec" opacity="0.11"/><circle cx="839.0" cy="675.3" r="0.81" fill="#f2f1ec" opacity="0.43"/><circle cx="712.4" cy="752.1" r="1.39" fill="#f2f1ec" opacity="0.24"/><circle cx="176.0" cy="216.6" r="1.59" fill="#f2f1ec" opacity="0.24"/><circle cx="892.9" cy="1081.6" r="1.59" fill="#f2f1ec" opacity="0.24"/><circle cx="795.6" cy="555.9" r="0.90" fill="#f2f1ec" opacity="0.31"/><circle cx="722.2" cy="184.2" r="0.53" fill="#f2f1ec" opacity="0.35"/><circle cx="823.1" cy="1107.4" r="1.22" fill="#f2f1ec" opacity="0.12"/><circle cx="492.8" cy="197.8" r="0.43" fill="#f2f1ec" opacity="0.31"/><circle cx="258.0" cy="403.6" r="0.61" fill="#f2f1ec" opacity="0.34"/><circle cx="274.2" cy="531.5" r="0.65" fill="#f2f1ec" opacity="0.15"/><circle cx="449.9" cy="913.8" r="1.49" fill="#f2f1ec" opacity="0.38"/><circle cx="58.7" cy="949.3" r="1.28" fill="#f2f1ec" opacity="0.34"/><circle cx="282.4" cy="925.9" r="0.97" fill="#f2f1ec" opacity="0.30"/><circle cx="59.7" cy="1029.5" r="0.58" fill="#f2f1ec" opacity="0.20"/><circle cx="790.4" cy="1096.3" r="1.44" fill="#f2f1ec" opacity="0.43"/><circle cx="873.0" cy="61.2" r="0.81" fill="#f2f1ec" opacity="0.14"/><circle cx="36.3" cy="1177.0" r="1.12" fill="#f2f1ec" opacity="0.34"/><circle cx="29.2" cy="578.0" r="0.83" fill="#f2f1ec" opacity="0.50"/><circle cx="372.9" cy="236.8" r="1.21" fill="#f2f1ec" opacity="0.26"/><circle cx="237.9" cy="787.5" r="1.15" fill="#f2f1ec" opacity="0.33"/><circle cx="674.9" cy="885.3" r="1.44" fill="#f2f1ec" opacity="0.42"/><circle cx="64.5" cy="36.0" r="0.73" fill="#f2f1ec" opacity="0.31"/><circle cx="2.8" cy="50.8" r="0.67" fill="#f2f1ec" opacity="0.48"/><circle cx="654.8" cy="636.7" r="0.48" fill="#f2f1ec" opacity="0.32"/><circle cx="887.3" cy="122.2" r="1.08" fill="#f2f1ec" opacity="0.13"/><circle cx="706.4" cy="241.8" r="0.43" fill="#f2f1ec" opacity="0.18"/><circle cx="550.5" cy="198.5" r="1.12" fill="#f2f1ec" opacity="0.44"/><circle cx="18.1" cy="1084.8" r="1.22" fill="#f2f1ec" opacity="0.43"/><circle cx="586.7" cy="601.0" r="0.97" fill="#f2f1ec" opacity="0.20"/><circle cx="334.3" cy="347.4" r="0.46" fill="#f2f1ec" opacity="0.13"/><circle cx="514.3" cy="1134.0" r="1.43" fill="#f2f1ec" opacity="0.12"/><circle cx="61.3" cy="57.5" r="1.46" fill="#f2f1ec" opacity="0.29"/><circle cx="252.0" cy="1028.4" r="1.32" fill="#f2f1ec" opacity="0.40"/><circle cx="886.9" cy="540.5" r="1.14" fill="#f2f1ec" opacity="0.08"/><circle cx="345.7" cy="91.2" r="0.45" fill="#f2f1ec" opacity="0.49"/><circle cx="537.2" cy="920.1" r="1.11" fill="#f2f1ec" opacity="0.46"/><circle cx="371.2" cy="813.6" r="1.55" fill="#f2f1ec" opacity="0.33"/><circle cx="401.1" cy="326.3" r="0.95" fill="#f2f1ec" opacity="0.30"/><circle cx="547.4" cy="36.0" r="1.16" fill="#f2f1ec" opacity="0.21"/><circle cx="549.1" cy="492.2" r="1.13" fill="#f2f1ec" opacity="0.24"/><circle cx="822.4" cy="323.2" r="1.27" fill="#f2f1ec" opacity="0.20"/><circle cx="649.4" cy="111.3" r="1.34" fill="#f2f1ec" opacity="0.31"/><circle cx="503.9" cy="1093.9" r="0.95" fill="#f2f1ec" opacity="0.42"/><circle cx="106.0" cy="871.6" r="1.53" fill="#f2f1ec" opacity="0.19"/><circle cx="131.4" cy="705.6" r="0.84" fill="#f2f1ec" opacity="0.18"/><circle cx="664.4" cy="518.8" r="0.79" fill="#f2f1ec" opacity="0.41"/><circle cx="628.7" cy="574.8" r="0.64" fill="#f2f1ec" opacity="0.16"/><circle cx="141.2" cy="1028.7" r="0.62" fill="#f2f1ec" opacity="0.31"/><circle cx="730.9" cy="1096.1" r="0.94" fill="#f2f1ec" opacity="0.09"/><circle cx="743.3" cy="124.9" r="1.35" fill="#f2f1ec" opacity="0.10"/><circle cx="840.1" cy="1014.7" r="0.91" fill="#f2f1ec" opacity="0.41"/><circle cx="657.2" cy="110.9" r="1.33" fill="#f2f1ec" opacity="0.32"/><circle cx="324.7" cy="1039.6" r="1.29" fill="#f2f1ec" opacity="0.10"/><circle cx="851.8" cy="245.9" r="1.55" fill="#f2f1ec" opacity="0.25"/><circle cx="680.1" cy="339.5" r="0.57" fill="#f2f1ec" opacity="0.44"/><circle cx="875.2" cy="668.5" r="0.60" fill="#f2f1ec" opacity="0.40"/><circle cx="221.6" cy="895.0" r="1.35" fill="#f2f1ec" opacity="0.30"/><circle cx="591.2" cy="140.3" r="1.59" fill="#f2f1ec" opacity="0.21"/><circle cx="237.1" cy="525.4" r="1.29" fill="#f2f1ec" opacity="0.41"/><circle cx="714.8" cy="391.5" r="1.09" fill="#f2f1ec" opacity="0.40"/><circle cx="707.7" cy="754.1" r="0.56" fill="#f2f1ec" opacity="0.08"/><circle cx="138.2" cy="791.5" r="0.62" fill="#f2f1ec" opacity="0.09"/><circle cx="231.7" cy="1172.3" r="1.04" fill="#f2f1ec" opacity="0.35"/><circle cx="218.4" cy="352.4" r="0.50" fill="#f2f1ec" opacity="0.38"/><circle cx="525.8" cy="1173.0" r="0.70" fill="#f2f1ec" opacity="0.16"/><circle cx="67.7" cy="492.1" r="0.93" fill="#f2f1ec" opacity="0.16"/><circle cx="743.7" cy="300.5" r="0.59" fill="#f2f1ec" opacity="0.12"/><circle cx="212.9" cy="606.8" r="0.44" fill="#f2f1ec" opacity="0.25"/><circle cx="855.6" cy="109.2" r="1.46" fill="#f2f1ec" opacity="0.30"/><circle cx="892.2" cy="212.1" r="0.55" fill="#f2f1ec" opacity="0.26"/><circle cx="559.4" cy="824.9" r="0.61" fill="#f2f1ec" opacity="0.40"/><circle cx="474.3" cy="486.4" r="1.59" fill="#f2f1ec" opacity="0.33"/><circle cx="814.0" cy="455.5" r="0.58" fill="#f2f1ec" opacity="0.21"/><circle cx="363.5" cy="719.6" r="1.23" fill="#f2f1ec" opacity="0.37"/><circle cx="365.7" cy="1013.2" r="0.50" fill="#f2f1ec" opacity="0.20"/><circle cx="153.3" cy="318.7" r="0.74" fill="#f2f1ec" opacity="0.26"/><circle cx="535.5" cy="51.4" r="1.34" fill="#f2f1ec" opacity="0.15"/><circle cx="665.1" cy="938.5" r="1.26" fill="#f2f1ec" opacity="0.34"/><circle cx="786.0" cy="177.4" r="1.17" fill="#f2f1ec" opacity="0.14"/><circle cx="731.5" cy="170.5" r="0.91" fill="#f2f1ec" opacity="0.16"/><circle cx="627.1" cy="1153.8" r="1.48" fill="#f2f1ec" opacity="0.16"/><circle cx="328.1" cy="1135.7" r="1.27" fill="#f2f1ec" opacity="0.45"/><circle cx="378.2" cy="672.9" r="1.11" fill="#f2f1ec" opacity="0.44"/><circle cx="178.5" cy="1101.6" r="1.07" fill="#f2f1ec" opacity="0.23"/><circle cx="830.3" cy="939.8" r="1.04" fill="#f2f1ec" opacity="0.24"/><circle cx="614.8" cy="326.5" r="1.26" fill="#f2f1ec" opacity="0.46"/><circle cx="128.3" cy="484.4" r="1.27" fill="#f2f1ec" opacity="0.31"/><circle cx="114.9" cy="1191.0" r="0.62" fill="#f2f1ec" opacity="0.11"/><circle cx="142.9" cy="168.5" r="1.15" fill="#f2f1ec" opacity="0.31"/><circle cx="516.8" cy="250.1" r="1.10" fill="#f2f1ec" opacity="0.15"/><circle cx="270.7" cy="783.0" r="0.96" fill="#f2f1ec" opacity="0.18"/><circle cx="395.8" cy="0.3" r="1.48" fill="#f2f1ec" opacity="0.10"/><circle cx="569.2" cy="197.2" r="1.43" fill="#f2f1ec" opacity="0.27"/><circle cx="41.2" cy="459.5" r="0.99" fill="#f2f1ec" opacity="0.25"/><circle cx="1.1" cy="118.8" r="0.40" fill="#f2f1ec" opacity="0.46"/><circle cx="357.2" cy="1064.8" r="0.82" fill="#f2f1ec" opacity="0.22"/><circle cx="347.9" cy="477.7" r="0.82" fill="#f2f1ec" opacity="0.35"/><circle cx="323.7" cy="857.5" r="1.21" fill="#f2f1ec" opacity="0.12"/><circle cx="309.0" cy="1111.3" r="1.56" fill="#f2f1ec" opacity="0.46"/><circle cx="757.4" cy="626.6" r="1.14" fill="#f2f1ec" opacity="0.16"/><circle cx="806.4" cy="251.3" r="1.49" fill="#f2f1ec" opacity="0.27"/><circle cx="381.5" cy="284.1" r="0.54" fill="#f2f1ec" opacity="0.11"/><circle cx="734.6" cy="501.9" r="0.46" fill="#f2f1ec" opacity="0.08"/><circle cx="413.0" cy="836.4" r="1.59" fill="#f2f1ec" opacity="0.16"/><circle cx="345.6" cy="1060.7" r="1.24" fill="#f2f1ec" opacity="0.35"/><circle cx="289.0" cy="302.4" r="0.91" fill="#f2f1ec" opacity="0.31"/><circle cx="564.7" cy="902.3" r="1.39" fill="#f2f1ec" opacity="0.43"/><circle cx="514.2" cy="456.6" r="1.06" fill="#f2f1ec" opacity="0.27"/><circle cx="276.0" cy="180.8" r="0.68" fill="#f2f1ec" opacity="0.16"/><circle cx="555.3" cy="891.8" r="1.18" fill="#f2f1ec" opacity="0.26"/><circle cx="485.7" cy="1136.0" r="1.57" fill="#f2f1ec" opacity="0.34"/><circle cx="52.0" cy="736.9" r="1.11" fill="#f2f1ec" opacity="0.18"/><circle cx="588.2" cy="632.0" r="0.58" fill="#f2f1ec" opacity="0.26"/><circle cx="333.7" cy="235.8" r="0.56" fill="#f2f1ec" opacity="0.25"/><circle cx="388.0" cy="288.5" r="0.59" fill="#f2f1ec" opacity="0.08"/><circle cx="538.5" cy="428.1" r="1.37" fill="#f2f1ec" opacity="0.26"/><circle cx="643.9" cy="36.1" r="1.55" fill="#f2f1ec" opacity="0.20"/><circle cx="226.8" cy="769.1" r="0.97" fill="#f2f1ec" opacity="0.43"/><circle cx="491.3" cy="949.3" r="1.19" fill="#f2f1ec" opacity="0.40"/><circle cx="471.2" cy="912.5" r="1.26" fill="#f2f1ec" opacity="0.42"/><circle cx="569.6" cy="1184.3" r="1.01" fill="#f2f1ec" opacity="0.17"/><circle cx="65.5" cy="662.5" r="0.84" fill="#f2f1ec" opacity="0.37"/><circle cx="649.0" cy="1155.3" r="1.39" fill="#f2f1ec" opacity="0.19"/><circle cx="855.1" cy="1192.0" r="0.53" fill="#f2f1ec" opacity="0.46"/><circle cx="463.1" cy="612.8" r="1.40" fill="#f2f1ec" opacity="0.35"/><circle cx="334.3" cy="174.0" r="0.90" fill="#f2f1ec" opacity="0.28"/><circle cx="744.1" cy="514.9" r="0.65" fill="#f2f1ec" opacity="0.47"/><circle cx="326.8" cy="851.9" r="1.24" fill="#f2f1ec" opacity="0.28"/><circle cx="679.0" cy="97.9" r="0.54" fill="#f2f1ec" opacity="0.36"/><circle cx="181.9" cy="277.5" r="1.20" fill="#f2f1ec" opacity="0.09"/><circle cx="15.5" cy="66.5" r="0.42" fill="#f2f1ec" opacity="0.17"/><circle cx="132.4" cy="940.9" r="0.98" fill="#f2f1ec" opacity="0.11"/><circle cx="645.2" cy="214.1" r="0.79" fill="#f2f1ec" opacity="0.30"/><circle cx="680.4" cy="955.5" r="1.30" fill="#f2f1ec" opacity="0.23"/><circle cx="888.7" cy="699.2" r="0.52" fill="#f2f1ec" opacity="0.19"/><circle cx="549.0" cy="302.5" r="1.32" fill="#f2f1ec" opacity="0.35"/><circle cx="534.7" cy="908.4" r="1.07" fill="#f2f1ec" opacity="0.45"/><circle cx="48.6" cy="1179.5" r="1.00" fill="#f2f1ec" opacity="0.20"/><circle cx="500.5" cy="775.2" r="1.26" fill="#f2f1ec" opacity="0.22"/><circle cx="444.0" cy="509.9" r="1.22" fill="#f2f1ec" opacity="0.34"/><circle cx="570.0" cy="463.0" r="1.51" fill="#f2f1ec" opacity="0.49"/><circle cx="153.8" cy="150.4" r="1.31" fill="#f2f1ec" opacity="0.33"/><circle cx="484.6" cy="500.2" r="1.33" fill="#f2f1ec" opacity="0.19"/><circle cx="561.0" cy="584.3" r="1.56" fill="#f2f1ec" opacity="0.21"/><circle cx="862.0" cy="918.9" r="1.27" fill="#f2f1ec" opacity="0.45"/><circle cx="582.1" cy="300.1" r="0.75" fill="#f2f1ec" opacity="0.37"/><circle cx="279.4" cy="610.7" r="1.03" fill="#f2f1ec" opacity="0.24"/><circle cx="600.3" cy="976.9" r="0.52" fill="#f2f1ec" opacity="0.41"/><circle cx="318.8" cy="965.7" r="0.78" fill="#f2f1ec" opacity="0.11"/><circle cx="803.8" cy="45.3" r="1.59" fill="#f2f1ec" opacity="0.27"/><circle cx="192.6" cy="231.5" r="0.99" fill="#f2f1ec" opacity="0.16"/><circle cx="234.2" cy="108.2" r="1.57" fill="#f2f1ec" opacity="0.39"/><circle cx="224.4" cy="122.8" r="1.43" fill="#f2f1ec" opacity="0.27"/><circle cx="34.2" cy="1111.8" r="1.50" fill="#f2f1ec" opacity="0.43"/><circle cx="164.7" cy="783.9" r="0.51" fill="#f2f1ec" opacity="0.26"/><circle cx="148.7" cy="88.7" r="1.01" fill="#f2f1ec" opacity="0.10"/><circle cx="551.9" cy="839.6" r="0.73" fill="#f2f1ec" opacity="0.23"/><circle cx="411.8" cy="521.0" r="1.52" fill="#f2f1ec" opacity="0.22"/><circle cx="408.6" cy="949.3" r="1.57" fill="#f2f1ec" opacity="0.44"/><circle cx="342.7" cy="71.5" r="1.28" fill="#f2f1ec" opacity="0.29"/><circle cx="533.5" cy="266.8" r="1.08" fill="#f2f1ec" opacity="0.28"/><circle cx="569.5" cy="383.5" r="1.15" fill="#f2f1ec" opacity="0.41"/><circle cx="3.1" cy="37.8" r="0.61" fill="#f2f1ec" opacity="0.43"/><circle cx="787.6" cy="1094.0" r="1.06" fill="#f2f1ec" opacity="0.14"/><circle cx="79.6" cy="325.0" r="0.73" fill="#f2f1ec" opacity="0.20"/><circle cx="120.0" cy="28.0" r="1.42" fill="#f2f1ec" opacity="0.12"/><circle cx="728.4" cy="385.8" r="1.11" fill="#f2f1ec" opacity="0.36"/><circle cx="605.2" cy="387.0" r="1.17" fill="#f2f1ec" opacity="0.09"/><circle cx="499.9" cy="554.3" r="0.48" fill="#f2f1ec" opacity="0.10"/><circle cx="177.8" cy="790.4" r="1.16" fill="#f2f1ec" opacity="0.18"/><circle cx="508.3" cy="202.9" r="0.75" fill="#f2f1ec" opacity="0.41"/><circle cx="249.1" cy="699.7" r="0.70" fill="#f2f1ec" opacity="0.12"/><rect width="900" height="1200" fill="none" stroke="#3a3a36" stroke-width="1"/><text x="24" y="1176" font-family="Helvetica, Arial, sans-serif" font-size="11" letter-spacing="2" fill="#f2f1ec" opacity="0.55">NURYS</text></svg>