<svg xmlns="http://www.w3.org/2000/svg" viewBox="0 0 800 1000" width="800" height="1000"><rect width="800" height="1000" fill="#0a0a0a"/><line x1="404.4" y1="168.5" x2="585.2" y2="528.5" stroke="#f2f1ec" stroke-width="1.24" opacity="0.10"/><line x1="709.1" y1="861.2" x2="1044.1" y2="904.5" stroke="#f2f1ec" stroke-width="0.85" opacity="0.08"/><line x1="255.2" y1="645.0" x2="451.9" y2="714.7" stroke="#f2f1ec" stroke-width="1.23" opacity="0.11"/><line x1="699.6" y1="572.8" x2="661.6" y2="659.9" stroke="#f2f1ec" stroke-width="0.48" opacity="0.16"/><line x1="138.9" y1="524.2" x2="-161.2" y2="625.3" stroke="#f2f1ec" stroke-width="0.93" opacity="0.09"/><line x1="100.5" y1="247.8" x2="-277.2" y2="301.8" stroke="#f2f1ec" stroke-width="0.60" opacity="0.08"/><line x1="777.5" y1="966.1" x2="758.6" y2="1154.2" stroke="#f2f1ec" stroke-width="1.04" opacity="0.20"/><line x1="200.8" y1="783.9" x2="204.9" y2="1083.0" stroke="#f2f1ec" stroke-width="1.53" opacity="0.07"/><line x1="239.8" y1="99.9" x2="605.8" y2="319.0" stroke="#f2f1ec" stroke-width="0.44" opacity="0.21"/><line x1="285.0" y1="606.2" x2="288.1" y2="729.7" stroke="#f2f1ec" stroke-width="0.70" opacity="0.10"/><line x1="264.7" y1="7.5" x2="222.8" y2="179.6" stroke="#f2f1ec" stroke-width="1.22" opacity="0.15"/><line x1="672.6" y1="958.5" x2="852.3" y2="1239.9" stroke="#f2f1ec" stroke-width="1.34" opacity="0.12"/><line x1="478.2" y1="735.3" x2="128.2" y2="898.4" stroke="#f2f1ec" stroke-width="1.00" opacity="0.14"/><line x1="304.6" y1="641.6" x2="216.4" y2="647.0" stroke="#f2f1ec" stroke-width="1.22" opacity="0.18"/><line x1="339.6" y1="18.4" x2="635.6" y2="352.0" stroke="#f2f1ec" stroke-width="1.31" opacity="0.17"/><line x1="751.4" y1="896.5" x2="1008.8" y2="907.1" stroke="#f2f1ec" stroke-width="1.24" opacity="0.19"/><line x1="379.2" y1="66.0" x2="253.0" y2="391.6" stroke="#f2f1ec" stroke-width="0.89" opacity="0.08"/><line x1="146.9" y1="168.9" x2="172.5" y2="578.4" stroke="#f2f1ec" stroke-width="0.59" opacity="0.12"/><line x1="166.7" y1="127.4" x2="424.8" y2="278.1" stroke="#f2f1ec" stroke-width="1.33" opacity="0.21"/><line x1="732.7" y1="966.1" x2="697.0" y2="1355.3" stroke="#f2f1ec" stroke-width="0.73" opacity="0.17"/><line x1="677.3" y1="289.7" x2="819.1" y2="394.1" stroke="#f2f1ec" stroke-width="1.14" opacity="0.17"/><line x1="340.3" y1="223.3" x2="343.3" y2="364.0" stroke="#f2f1ec" stroke-width="1.36" opacity="0.19"/><line x1="86.9" y1="375.8" x2="-85.4" y2="437.9" stroke="#f2f1ec" stroke-width="1.42" opacity="0.20"/><line x1="567.2" y1="699.9" x2="620.5" y2="872.8" stroke="#f2f1ec" stroke-width="0.93" opacity="0.08"/><line x1="97.3" y1="639.4" x2="221.3" y2="764.1" stroke="#f2f1ec" stroke-width="1.54" opacity="0.17"/><line x1="397.2" y1="528.1" x2="848.0" y2="564.0" stroke="#f2f1ec" stroke-width="0.89" opacity="0.11"/><line x1="140.5" y1="755.9" x2="106.1" y2="1042.3" stroke="#f2f1ec" stroke-width="0.95" opacity="0.21"/><line x1="786.9" y1="436.9" x2="1246.2" y2="552.6" stroke="#f2f1ec" stroke-width="0.71" opacity="0.19"/><line x1="2.5" y1="791.6" x2="44.9" y2="1222.1" stroke="#f2f1ec" stroke-width="0.67" opacity="0.16"/><line x1="787.7" y1="344.0" x2="1208.6" y2="432.0" stroke="#f2f1ec" stroke-width="1.30" opacity="0.07"/><line x1="280.4" y1="146.2" x2="389.3" y2="526.6" stroke="#f2f1ec" stroke-width="1.08" opacity="0.13"/><line x1="388.1" y1="751.2" x2="651.0" y2="811.1" stroke="#f2f1ec" stroke-width="1.19" opacity="0.17"/><line x1="394.4" y1="950.8" x2="448.4" y2="1049.5" stroke="#f2f1ec" stroke-width="1.46" opacity="0.20"/><line x1="511.3" y1="938.6" x2="504.9" y2="1208.5" stroke="#f2f1ec" stroke-width="0.86" opacity="0.13"/><line x1="327.2" y1="409.9" x2="495.1" y2="584.1" stroke="#f2f1ec" stroke-width="0.49" opacity="0.08"/><line x1="538.2" y1="489.2" x2="266.4" y2="621.1" stroke="#f2f1ec" stroke-width="0.53" opacity="0.16"/><line x1="551.6" y1="777.2" x2="245.0" y2="1126.8" stroke="#f2f1ec" stroke-width="0.70" opacity="0.15"/><line x1="219.9" y1="126.5" x2="111.1" y2="207.1" stroke="#f2f1ec" stroke-width="0.58" opacity="0.13"/><line x1="157.8" y1="84.8" x2="483.1" y2="258.1" stroke="#f2f1ec" stroke-width="0.99" opacity="0.21"/><line x1="215.4" y1="349.9" x2="236.2" y2="615.6" stroke="#f2f1ec" stroke-width="1.36" opacity="0.19"/><rect x="0" y="207.4" width="800" height="140.0" fill="#f2f1ec" opacity="0.06"/><polygon points="213.5,270.7 81.8,691.4 559.8,902.0" fill="none" stroke="#f2f1ec" stroke-width="1" opacity="0.45"/><circle cx="136.8" cy="354.0" r="0.63" fill="#f2f1ec" opacity="0.21"/><circle cx="715.5" cy="18.8" r="1.35" fill="#f2f1ec" opacity="0.37"/><circle cx="23.2" cy="34.4" r="1.07" fill="#f2f1ec" opacity="0.46"/><circle cx="336.1" cy="728.0" r="1.40" fill="#f2f1ec" opacity="0.50"/><circle cx="514.3" cy="373.2" r="1.30" fill="#f2f1ec" opacity="0.33"/><circle cx="378.8" cy="834.7" r="0.91" fill="#f2f1ec" opacity="0.35"/><circle cx="569.4" cy="878.1" r="0.56" fill="#f2f1ec" opacity="0.43"/><circle cx="729.6" cy="74.8" r="0.67" fill="#f2f1ec" opacity="0.30"/><circle cx="344.5" cy="892.0" r="0.48" fill="#f2f1ec" opacity="0.08"/><circle cx="683.0" cy="694.8" r="0.97" fill="#f2f1ec" opacity="0.20"/><circle cx="428.4" cy="898.1" r="1.29" fill="#f2f1ec" opacity="0.28"/><circle cx="113.7" cy="339.1" r="0.96" fill="#f2f1ec" opacity="0.39"/><circle cx="708.0" cy="734.4" r="1.33" fill="#f2f1ec" opacity="0.44"/><circle cx="446.2" cy="170.2" r="1.51" fill="#f2f1ec" opacity="0.28"/><circle cx="700.2" cy="615.1" r="1.08" fill="#f2f1ec" opacity="0.29"/><circle cx="173.5" cy="772.3" r="0.54" fill="#f2f1ec" opacity="0.32"/><circle cx="136.6" cy="166.9" r="1.19" fill="#f2f1ec" opacity="0.49"/><circle cx="532.1" cy="419.8" r="0.75" fill="#f2f1ec" opacity="0.42"/><circle cx="576.5" cy="710.5" r="1.51" fill="#f2f1ec" opacity="0.18"/><circle cx="767.0" cy="394.2" r="1.08" fill="#f2f1ec" opacity="0.09"/><circle cx="486.3" cy="868.2" r="0.77" fill="#f2f1ec" opacity="0.10"/><circle cx="422.1" cy="770.8" r="0.74" fill="#f2f1ec" opacity="0.19"/><circle cx="114.2" cy="545.9" r="1.20" fill="#f2f1ec" opacity="0.25"/><circle cx="715.5" cy="522.6" r="1.52" fill="#f2f1ec" opacity="0.36"/><circle cx="127.6" cy="799.6" r="0.54" fill="#f2f1ec" opacity="0.44"/><circle cx="453.9" cy="128.9" r="0.76" fill="#f2f1ec" opacity="0.22"/><circle cx="321.9" cy="241.2" r="0.50" fill="#f2f1ec" opacity="0.20"/><circle cx="674.4" cy="478.9" r="0.81" fill="#f2f1ec" opacity="0.16"/><circle cx="783.3" cy="18.9" r="0.54" fill="#f2f1ec" opacity="0.08"/><circle cx="548.2" cy="124.6" r="0.48" fill="#f2f1ec" opacity="0.47"/><circle cx="105.9" cy="400.2" r="0.69" fill="#f2f1ec" opacity="0.48"/><circle cx="520.4" cy="265.6" r="0.44" fill="#f2f1ec" opacity="0.14"/><circle cx="508.0" cy="339.7" r="1.19" fill="#f2f1ec" opacity="0.27"/><circle cx="368.9" cy="459.6" r="0.81" fill="#f2f1ec" opacity="0.23"/><circle cx="115.5" cy="292.2" r="1.39" fill="#f2f1ec" opacity="0.15"/><circle cx="158.2" cy="641.7" r="1.24" fill="#f2f1ec" opacity="0.11"/><circle cx="569.3" cy="522.9" r="1.52" fill="#f2f1ec" opacity="0.08"/><circle cx="161.0" cy="833.3" r="1.18" fill="#f2f1ec" opacity="0.45"/><circle cx="259.0" cy="975.7" r="0.89" fill="#f2f1ec" opacity="0.45"/><circle cx="30.0" cy="537.2" r="0.84" fill="#f2f1ec" opacity="0.29"/><circle cx="726.7" cy="59.2" r="1.14" fill="#f2f1ec" opacity="0.35"/><circle cx="597.2" cy="877.1" r="0.79" fill="#f2f1ec" opacity="0.16"/><circle cx="202.5" cy="656.0" r="0.81" fill="#f2f1ec" opacity="0.19"/><circle cx="72.4" cy="153.7" r="1.27" fill="#f2f1ec" opacity="0.33"/><circle cx="391.2" cy="483.0" r="0.42" fill="#f2f1ec" opacity="0.50"/><circle cx="12.9" cy="180.3" r="0.71" fill="#f2f1ec" opacity="0.29"/><circle cx="688.7" cy="110.5" r="0.83" fill="#f2f1ec" opacity="0.27"/><circle cx="0.2" cy="757.5" r="0.72" fill="#f2f1ec" opacity="0.47"/><circle cx="766.3" cy="895.7" r="1.02" fill="#f2f1ec" opacity="0.16"/><circle cx="73.8" cy="89.1" r="1.46" fill="#f2f1ec" opacity="0.39"/><circle cx="573.8" cy="232.4" r="0.58" fill="#f2f1ec" opacity="0.48"/><circle cx="600.0" cy="713.2" r="1.53" fill="#f2f1ec" opacity="0.24"/><circle cx="537.6" cy="467.1" r="1.29" fill="#f2f1ec" opacity="0.30"/><circle cx="493.2" cy="940.1" r="0.86" fill="#f2f1ec" opacity="0.17"/><circle cx="749.4" cy="729.5" r="1.00" fill="#f2f1ec" opacity="0.17"/><circle cx="518.9" cy="52.8" r="1.04" fill="#f2f1ec" opacity="0.13"/><circle cx="614.6" cy="190.2" r="0.88" fill="#f2f1ec" opacity="0.30"/><circle cx="640.0" cy="775.4" r="1.11" fill="#f2f1ec" opacity="0.13"/><circle cx="539.5" cy="680.3" r="1.23" fill="#f2f1ec" opacity="0.08"/><circle cx="432.7" cy="210.6" r="0.44" fill="#f2f1ec" opacity="0.50"/><circle cx="714.0" cy="400.3" r="1.56" fill="#f2f1ec" opacity="0.33"/><circle cx="35.9" cy="971.2" r="1.27" fill="#f2f1ec" opacity="0.47"/><circle cx="3.1" cy="300.3" r="0.59" fill="#f2f1ec" opacity="0.27"/><circle cx="541.2" cy="179.6" r="0.74" fill="#f2f1ec" opacity="0.13"/><circle cx="716.9" cy="685.7" r="0.65" fill="#f2f1ec" opacity="0.36"/><circle cx="201.4" cy="196.3" r="0.66" fill="#f2f1ec" opacity="0.44"/><circle cx="589.0" cy="934.5" r="0.72" fill="#f2f1ec" opacity="0.13"/><circle cx="438.5" cy="829.3" r="1.08" fill="#f2f1ec" opacity="0.29"/><circle cx="222.7" cy="879.5" r="0.80" fill="#f2f1ec" opacity="0.12"/><circle cx="545.1" cy="227.7" r="1.45" fill="#f2f1ec" opacity="0.43"/><circle cx="126.4" cy="151.3" r="0.68" fill="#f2f1ec" opacity="0.41"/><circle cx="430.7" cy="567.3" r="0.46" fill="#f2f1ec" opacity="0.15"/><circle cx="224.8" cy="952.9" r="0.74" fill="#f2f1ec" opacity="0.42"/><circle cx="454.6" cy="691.2" r="1.34" fill="#f2f1ec" opacity="0.30"/><circle cx="293.2" cy="373.1" r="0.58" fill="#f2f1ec" opacity="0.43"/><circle cx="135.5" cy="806.2" r="0.95" fill="#f2f1ec" opacity="0.48"/><circle cx="315.6" cy="47.2" r="1.05" fill="#f2f1ec" opacity="0.35"/><circle cx="781.7" cy="98.9" r="1.33" fill="#f2f1ec" opacity="0.43"/><circle cx="437.4" cy="846.6" r="1.08" fill="#f2f1ec" opacity="0.50"/><circle cx="631.7" cy="890.7" r="1.07" fill="#f2f1ec" opacity="0.12"/><circle cx="331.6" cy="896.2" r="1.15" fill="#f2f1ec" opacity="0.26"/><circle cx="337.6" cy="387.1" r="0.74" fill="#f2f1ec" opacity="0.20"/><circle cx="15.5" cy="439.7" r="0.95" fill="#f2f1ec" opacity="0.21"/><circle cx="728.6" cy="24.1" r="1.42" fill="#f2f1ec" opacity="0.46"/><circle cx="638.4" cy="348.2" r="1.17" fill="#f2f1ec" opacity="0.36"/><circle cx="122.3" cy="434.7" r="1.40" fill="#f2f1ec" opacity="0.46"/><circle cx="793.0" cy="537.0" r="0.96" fill="#f2f1ec" opacity="0.12"/><circle cx="591.4" cy="131.5" r="1.02" fill="#f2f1ec" opacity="0.35"/><circle cx="379.1" cy="306.0" r="0.96" fill="#f2f1ec" opacity="0.24"/><circle cx="791.2" cy="24.6" r="1.06" fill="#f2f1ec" opacity="0.46"/><circle cx="518.1" cy="488.6" r="0.91" fill="#f2f1ec" opacity="0.22"/><circle cx="180.5" cy="707.4" r="0.70" fill="#f2f1ec" opacity="0.47"/><circle cx="362.5" cy="291.6" r="0.58" fill="#f2f1ec" opacity="0.19"/><circle cx="435.6" cy="777.7" r="1.11" fill="#f2f1ec" opacity="0.17"/><circle cx="691.9" cy="314.1" r="0.86" fill="#f2f1ec" opacity="0.47"/><circle cx="558.7" cy="588.0" r="1.25" fill="#f2f1ec" opacity="0.10"/><circle cx="763.2" cy="652.6" r="1.16" fill="#f2f1ec" opacity="0.25"/><circle cx="267.7" cy="168.1" r="1.56" fill="#f2f1ec" opacity="0.15"/><circle cx="192.0" cy="669.1" r="1.02" fill="#f2f1ec" opacity="0.29"/><circle cx="545.9" cy="229.2" r="0.44" fill="#f2f1ec" opacity="0.20"/><circle cx="416.8" cy="455.6" r="1.52" fill="#f2f1ec" opacity="0.28"/><circle cx="435.3" cy="59.7" r="0.89" fill="#f2f1ec" opacity="0.29"/><circle cx="410.7" cy="869.4" r="1.25" fill="#f2f1ec" opacity="0.41"/><circle cx="289.8" cy="186.4" r="0.56" fill="#f2f1ec" opacity="0.37"/><circle cx="363.2" cy="458.6" r="0.46" fill="#f2f1ec" opacity="0.09"/><circle cx="201.7" cy="653.6" r="1.02" fill="#f2f1ec" opacity="0.16"/><circle cx="45.4" cy="735.9" r="1.03" fill="#f2f1ec" opacity="0.41"/><circle cx="165.8" cy="934.5" r="0.48" fill="#f2f1ec" opacity="0.14"/><circle cx="290.5" cy="67.9" r="1.50" fill="#f2f1ec" opacity="0.47"/><circle cx="630.3" cy="613.1" r="1.58" fill="#f2f1ec" opacity="0.36"/><circle cx="439.1" cy="866.0" r="1.24" fill="#f2f1ec" opacity="0.39"/><circle cx="738.4" cy="33.5" r="0.42" fill="#f2f1ec" opacity="0.35"/><circle cx="21.9" cy="458.0" r="0.85" fill="#f2f1ec" opacity="0.40"/><circle cx="64.8" cy="688.5" r="0.71" fill="#f2f1ec" opacity="0.47"/><circle cx="526.1" cy="718.6" r="1.41" fill="#f2f1ec" opacity="0.45"/><circle cx="683.1" cy="410.9" r="1.39" fill="#f2f1ec" opacity="0.22"/><circle cx="567.4" cy="367.0" r="0.64" fill="#f2f1ec" opacity="0.11"/><circle cx="413.5" cy="933.5" r="0.55" fill="#f2f1ec" opacity="0.16"/><circle cx="139.0" cy="963.4" r="1.49" fill="#f2f1ec" opacity="0.15"/><circle cx="5.3" cy="10.9" r="0.58" fill="#f2f1ec" opacity="0.17"/><circle cx="370.7" cy="654.7" r="1.01" fill="#f2f1ec" opacity="0.41"/><circle cx="237.0" cy="362.8" r="0.79" fill="#f2f1ec" opacity="0.41"/><circle cx="465.9" cy="880.8" r="0.79" fill="#f2f1ec" opacity="0.21"/><circle cx="696.3" cy="113.2" r="0.60" fill="#f2f1ec" opacity="0.40"/><circle cx="335.9" cy="424.9" r="0.95" fill="#f2f1ec" opacity="0.08"/><circle cx="291.6" cy="462.8" r="1.11" fill="#f2f1ec" opacity="0.35"/><circle cx="689.3" cy="234.2" r="0.92" fill="#f2f1ec" opacity="0.31"/><circle cx="78.5" cy="821.4" r="1.35" fill="#f2f1ec" opacity="0.47"/><circle cx="247.2" cy="566.1" r="1.01" fill="#f2f1ec" opacity="0.20"/><circle cx="184.9" cy="20.0" r="1.23" fill="#f2f1ec" opacity="0.18"/><circle cx="480.0" cy="73.6" r="0.52" fill="#f2f1ec" opacity="0.18"/><circle cx="22.1" cy="733.0" r="0.84" fill="#f2f1ec" opacity="0.30"/><circle cx="394.1" cy="170.9" r="1.09" fill="#f2f1ec" opacity="0.49"/><circle cx="492.2" cy="591.8" r="1.17" fill="#f2f1ec" opacity="0.13"/><circle cx="493.4" cy="901.2" r="0.76" fill="#f2f1ec" opacity="0.16"/><circle cx="59.8" cy="699.8" r="0.90" fill="#f2f1ec" opacity="0.12"/><circle cx="30.6" cy="569.7" r="1.55" fill="#f2f1ec" opacity="0.19"/><circle cx="84.3" cy="391.2" r="1.55" fill="#f2f1ec" opacity="0.41"/><circle cx="480.5" cy="982.9" r="0.98" fill="#f2f1ec" opacity="0.25"/><circle cx="190.5" cy="279.9" r="1.36" fill="#f2f1ec" opacity="0.20"/><circle cx="603.4" cy="246.3" r="0.61" fill="#f2f1ec" opacity="0.23"/><circle cx="537.9" cy="529.1" r="1.17" fill="#f2f1ec" opacity="0.12"/><circle cx="698.1" cy="366.9" r="1.48" fill="#f2f1ec" opacity="0.10"/><circle cx="81.0" cy="493.2" r="1.42" fill="#f2f1ec" opacity="0.10"/><circle cx="23.1" cy="685.4" r="0.47" fill="#f2f1ec" opacity="0.10"/><circle cx="505.1" cy="349.3" r="1.54" fill="#f2f1ec" opacity="0.36"/><circle cx="497.0" cy="976.3" r="1.19" fill="#f2f1ec" opacity="0.45"/><circle cx="656.4" cy="808.8" r="1.07" fill="#f2f1ec" opacity="0.25"/><circle cx="108.4" cy="408.2" r="0.92" fill="#f2f1ec" opacity="0.16"/><circle cx="375.7" cy="903.9" r="0.97" fill="#f2f1ec" opacity="0.11"/><circle cx="439.2" cy="282.5" r="1.17" fill="#f2f1ec" opacity="0.20"/><circle cx="629.6" cy="520.9" r="1.59" fill="#f2f1ec" opacity="0.24"/><circle cx="259.3" cy="214.1" r="0.72" fill="#f2f1ec" opacity="0.40"/><circle cx="669.1" cy="879.4" r="1.20" fill="#f2f1ec" opacity="0.23"/><circle cx="73.6" cy="218.5" r="0.91" fill="#f2f1ec" opacity="0.16"/><circle cx="428.6" cy="138.5" r="0.67" fill="#f2f1ec" opacity="0.31"/><circle cx="614.4" cy="723.0" r="0.75" fill="#f2f1ec" opacity="0.18"/><circle cx="68.9" cy="969.0" r="1.18" fill="#f2f1ec" opacity="0.37"/><circle cx="634.1" cy="145.1" r="1.52" fill="#f2f1ec" opacity="0.29"/><circle cx="628.6" cy="274.8" r="1.08" fill="#f2f1ec" opacity="0.31"/><circle cx="661.9" cy="990.6" r="1.53" fill="#f2f1ec" opacity="0.49"/><circle cx="633.8" cy="969.6" r="1.04" fill="#f2f1ec" opacity="0.10"/><circle cx="611.0" cy="823.2" r="1.33" fill="#f2f1ec" opacity="0.19"/><circle cx="310.8" cy="693.2" r="1.50" fill="#f2f1ec" opacity="0.46"/><circle cx="659.3" cy="836.2" r="1.39" fill="#f2f1ec" opacity="0.48"/><circle cx="274.1" cy="478.3" r="0.92" fill="#f2f1ec" opacity="0.37"/><circle cx="463.9" cy="691.2" r="1.17" fill="#f2f1ec" opacity="0.28"/><circle cx="566.0" cy="940.0" r="0.48" fill="#f2f1ec" opacity="0.25"/><circle cx="17.5" cy="486.7" r="1.39" fill="#f2f1ec" opacity="0.19"/><circle cx="110.7" cy="61.4" r="0.52" fill="#f2f1ec" opacity="0.49"/><circle cx="51.7" cy="209.0" r="1.45" fill="#f2f1ec" opacity="0.20"/><circle cx="88.0" cy="582.0" r="1.47" fill="#f2f1ec" opacity="0.16"/><circle cx="582.9" cy="912.5" r="0.93" fill="#f2f1ec" opacity="0.32"/><circle cx="391.4" cy="865.2" r="1.56" fill="#f2f1ec" opacity="0.34"/><circle cx="618.3" cy="928.5" r="1.46" fill="#f2f1ec" opacity="0.19"/><circle cx="353.1" cy="60.8" r="0.93" fill="#f2f1ec" opacity="0.38"/><circle cx="38.2" cy="397.2" r="1.08" fill="#f2f1ec" opacity="0.40"/><circle cx="424.2" cy="641.8" r="1.05" fill="#f2f1ec" opacity="0.15"/><circle cx="264.5" cy="590.7" r="1.19" fill="#f2f1ec" opacity="0.24"/><circle cx="597.4" cy="590.2" r="0.72" fill="#f2f1ec" opacity="0.42"/><circle cx="613.8" cy="836.1" r="1.05" fill="#f2f1ec" opacity="0.44"/><circle cx="58.6" cy="874.5" r="1.19" fill="#f2f1ec" opacity="0.21"/><circle cx="685.0" cy="148.5" r="0.40" fill="#f2f1ec" opacity="0.46"/><circle cx="603.9" cy="221.0" r="0.74" fill="#f2f1ec" opacity="0.12"/><circle cx="180.9" cy="728.0" r="0.71" fill="#f2f1ec" opacity="0.30"/><circle cx="55.9" cy="186.5" r="1.19" fill="#f2f1ec" opacity="0.09"/><circle cx="131.8" cy="230.4" r="0.60" fill="#f2f1ec" opacity="0.22"/><circle cx="533.0" cy="146.0" r="1.22" fill="#f2f1ec" opacity="0.32"/><circle cx="6.5" cy="88.8" r="1.18" fill="#f2f1ec" opacity="0.14"/><circle cx="499.0" cy="641.4" r="1.06" fill="#f2f1ec" opacity="0.44"/><circle cx="755.2" cy="223.0" r="0.54" fill="#f2f1ec" opacity="0.35"/><circle cx="167.6" cy="63.6" r="0.79" fill="#f2f1ec" opacity="0.48"/><circle cx="298.8" cy="147.6" r="1.22" fill="#f2f1ec" opacity="0.30"/><circle cx="237.1" cy="535.3" r="1.35" fill="#f2f1ec" opacity="0.11"/><circle cx="15.4" cy="806.8" r="0.63" fill="#f2f1ec" opacity="0.31"/><circle cx="722.2" cy="725.9" r="1.04" fill="#f2f1ec" opacity="0.18"/><circle cx="788.2" cy="110.8" r="0.94" fill="#f2f1ec" opacity="0.35"/><circle cx="706.3" cy="560.4" r="0.93" fill="#f2f1ec" opacity="0.15"/><circle cx="568.4" cy="164.5" r="1.21" fill="#f2f1ec" opacity="0.28"/><circle cx="535.9" cy="150.5" r="0.46" fill="#f2f1ec" opacity="0.48"/><circle cx="480.0" cy="981.8" r="0.91" fill="#f2f1ec" opacity="0.24"/><circle cx="660.0" cy="653.2" r="0.80" fill="#f2f1ec" opacity="0.36"/><circle cx="230.2" cy="836.7" r="1.29" fill="#f2f1ec" opacity="0.24"/><circle cx="486.0" cy="287.4" r="0.72" fill="#f2f1ec" opacity="0.40"/><circle cx="578.4" cy="547.9" r="1.03" fill="#f2f1ec" opacity="0.28"/><circle cx="401.5" cy="210.1" r="1.08" fill="#f2f1ec" opacity="0.46"/><circle cx="408.9" cy="516.2" r="0.54" fill="#f2f1ec" opacity="0.22"/><circle cx="501.0" cy="147.6" r="0.46" fill="#f2f1ec" opacity="0.25"/><circle cx="173.6" cy="311.8" r="1.31" fill="#f2f1ec" opacity="0.34"/><circle cx="656.4" cy="709.2" r="0.56" fill="#f2f1ec" opacity="0.21"/><circle cx="669.0" cy="430.7" r="0.71" fill="#f2f1ec" opacity="0.33"/><circle cx="357.7" cy="251.2" r="0.91" fill="#f2f1ec" opacity="0.30"/><circle cx="335.8" cy="134.3" r="1.31" fill="#f2f1ec" opacity="0.15"/><circle cx="411.5" cy="110.3" r="0.84" fill="#f2f1ec" opacity="0.38"/><circle cx="283.0" cy="461.6" r="1.33" fill="#f2f1ec" opacity="0.10"/><circle cx="653.9" cy="975.7" r="1.48" fill="#f2f1ec" opacity="0.36"/><circle cx="651.2" cy="501.4" r="0.71" fill="#f2f1ec" opacity="0.13"/><circle cx="625.5" cy="373.6" r="0.67" fill="#f2f1ec" opacity="0.47"/><circle cx="665.0" cy="682.7" r="1.29" fill="#f2f1ec" opacity="0.35"/><circle cx="108.2" cy="974.3" r="1.21" fill="#f2f1ec" opacity="0.08"/><rect width="800" height="1000" fill="none" stroke="#3a3a36" stroke-width="1"/><text x="24" y="976" font-family="Helvetica, Arial, sans-serif" font-size="11" letter-spacing="2" fill="#f2f1ec" opacity="0.55">SHXTGUN.WAV</text></svg>